<?xml version="1.0" encoding="utf-8" standalone="no"?>
<!DOCTYPE svg PUBLIC "-//W3C//DTD SVG 1.1//EN"
  "http://www.w3.org/Graphics/SVG/1.1/DTD/svg11.dtd">
<svg xmlns:xlink="http://www.w3.org/1999/xlink" width="907.2pt" height="471.6pt" viewBox="0 0 907.2 471.6" xmlns="http://www.w3.org/2000/svg" version="1.1">
 <metadata>
  <rdf:RDF xmlns:dc="http://purl.org/dc/elements/1.1/" xmlns:cc="http://creativecommons.org/ns#" xmlns:rdf="http://www.w3.org/1999/02/22-rdf-syntax-ns#">
   <cc:Work>
    <dc:type rdf:resource="http://purl.org/dc/dcmitype/StillImage"/>
    <dc:date>2026-06-17T15:01:54.521030</dc:date>
    <dc:format>image/svg+xml</dc:format>
    <dc:creator>
     <cc:Agent>
      <dc:title>Matplotlib v3.11.0, https://matplotlib.org/</dc:title>
     </cc:Agent>
    </dc:creator>
   </cc:Work>
  </rdf:RDF>
 </metadata>
 <defs>
  <style type="text/css">*{stroke-linejoin: round; stroke-linecap: butt}</style>
 </defs>
 <g id="figure_1">
  <g id="patch_1">
   <path d="M 0 471.6
L 907.2 471.6
L 907.2 0
L 0 0
z
" style="fill: #fcfcfd"/>
  </g>
  <g id="axes_1">
   <g id="patch_2">
    <path d="M 258.552 415.008
L 884.52 415.008
L 884.52 94.32
L 258.552 94.32
z
" style="fill: #ffffff"/>
   </g>
   <g id="patch_3">
    <path d="M 48.85272 107.751958
L 258.552 107.751958
L 258.552 174.911749
L 48.85272 174.911749
z
" style="fill: #eaf1fe; opacity: 0.78; stroke: #c5cad3; stroke-width: 0.8; stroke-linejoin: miter"/>
   </g>
   <g id="patch_4">
    <path d="M 48.85272 174.911749
L 258.552 174.911749
L 258.552 342.811225
L 48.85272 342.811225
z
" style="fill: #fff4c2; opacity: 0.78; stroke: #c5cad3; stroke-width: 0.8; stroke-linejoin: miter"/>
   </g>
   <g id="patch_5">
    <path d="M 48.85272 342.811225
L 258.552 342.811225
L 258.552 376.39112
L 48.85272 376.39112
z
" style="fill: #eaf1fe; opacity: 0.78; stroke: #c5cad3; stroke-width: 0.8; stroke-linejoin: miter"/>
   </g>
   <g id="patch_6">
    <path d="M 48.85272 376.39112
L 258.552 376.39112
L 258.552 409.971016
L 48.85272 409.971016
z
" style="fill: #fff4c2; opacity: 0.78; stroke: #c5cad3; stroke-width: 0.8; stroke-linejoin: miter"/>
   </g>
   <g id="patch_7">
    <path d="M 258.552 107.751958
L 884.52 107.751958
L 884.52 174.911749
L 258.552 174.911749
z
" clip-path="url(#pef31553c0d)" style="fill: #f4f5f7; opacity: 0.35; stroke: #f4f5f7; stroke-linejoin: miter"/>
   </g>
   <g id="patch_8">
    <path d="M 258.552 342.811225
L 884.52 342.811225
L 884.52 376.39112
L 258.552 376.39112
z
" clip-path="url(#pef31553c0d)" style="fill: #f4f5f7; opacity: 0.35; stroke: #f4f5f7; stroke-linejoin: miter"/>
   </g>
   <g id="line2d_1">
    <path d="M 258.552 174.911749
L 884.52 174.911749
" clip-path="url(#pef31553c0d)" style="fill: none; stroke: #e6e8f0; stroke-width: 1.1; stroke-linecap: square"/>
   </g>
   <g id="line2d_2">
    <path d="M 258.552 342.811225
L 884.52 342.811225
" clip-path="url(#pef31553c0d)" style="fill: none; stroke: #e6e8f0; stroke-width: 1.1; stroke-linecap: square"/>
   </g>
   <g id="line2d_3">
    <path d="M 258.552 376.39112
L 884.52 376.39112
" clip-path="url(#pef31553c0d)" style="fill: none; stroke: #e6e8f0; stroke-width: 1.1; stroke-linecap: square"/>
   </g>
   <g id="line2d_4">
    <path d="M 105.18984 107.751958
L 105.18984 409.971016
" style="fill: none; stroke: #c5cad3; stroke-opacity: 0.75; stroke-width: 0.65; stroke-linecap: square"/>
   </g>
   <g id="line2d_5">
    <path d="M 184.061808 107.751958
L 184.061808 409.971016
" style="fill: none; stroke: #c5cad3; stroke-opacity: 0.75; stroke-width: 0.65; stroke-linecap: square"/>
   </g>
   <g id="line2d_6">
    <path d="M 218.490048 107.751958
L 218.490048 409.971016
" style="fill: none; stroke: #c5cad3; stroke-opacity: 0.75; stroke-width: 0.65; stroke-linecap: square"/>
   </g>
   <g id="line2d_7">
    <path d="M 258.552 107.751958
L 258.552 409.971016
" style="fill: none; stroke: #c5cad3; stroke-opacity: 0.75; stroke-width: 0.65; stroke-linecap: square"/>
   </g>
   <g id="matplotlib.axis_1">
    <g id="xtick_1">
     <g id="line2d_8">
      <path d="M 258.552 415.008
L 258.552 94.32
" clip-path="url(#pef31553c0d)" style="fill: none; stroke: #e6e8f0; stroke-width: 0.8; stroke-linecap: square"/>
     </g>
     <g id="line2d_9">
      <defs>
       <path id="m6996fb2e0a" d="M 0 0
L 0 3.5
" style="stroke: #1f2430; stroke-width: 0.8"/>
      </defs>
      <g>
       <use xlink:href="#m6996fb2e0a" x="258.552" y="415.008" style="fill: #1f2430; stroke: #1f2430; stroke-width: 0.8"/>
      </g>
     </g>
     <g id="text_1">
      <text style="font-size: 10px; font-family: 'Noto Sans CJK SC'; text-anchor: middle; fill: #1f2430" x="258.552" y="430.808" transform="rotate(-0 258.552 430.808)">0</text>
     </g>
    </g>
    <g id="xtick_2">
     <g id="line2d_10">
      <path d="M 333.969831 415.008
L 333.969831 94.32
" clip-path="url(#pef31553c0d)" style="fill: none; stroke: #e6e8f0; stroke-width: 0.8; stroke-linecap: square"/>
     </g>
     <g id="line2d_11">
      <g>
       <use xlink:href="#m6996fb2e0a" x="333.969831" y="415.008" style="fill: #1f2430; stroke: #1f2430; stroke-width: 0.8"/>
      </g>
     </g>
     <g id="text_2">
      <text style="font-size: 10px; font-family: 'Noto Sans CJK SC'; text-anchor: middle; fill: #1f2430" x="333.969831" y="430.808" transform="rotate(-0 333.969831 430.808)">5</text>
     </g>
    </g>
    <g id="xtick_3">
     <g id="line2d_12">
      <path d="M 409.387663 415.008
L 409.387663 94.32
" clip-path="url(#pef31553c0d)" style="fill: none; stroke: #e6e8f0; stroke-width: 0.8; stroke-linecap: square"/>
     </g>
     <g id="line2d_13">
      <g>
       <use xlink:href="#m6996fb2e0a" x="409.387663" y="415.008" style="fill: #1f2430; stroke: #1f2430; stroke-width: 0.8"/>
      </g>
     </g>
     <g id="text_3">
      <text style="font-size: 10px; font-family: 'Noto Sans CJK SC'; text-anchor: middle; fill: #1f2430" x="409.387663" y="430.808" transform="rotate(-0 409.387663 430.808)">10</text>
     </g>
    </g>
    <g id="xtick_4">
     <g id="line2d_14">
      <path d="M 484.805494 415.008
L 484.805494 94.32
" clip-path="url(#pef31553c0d)" style="fill: none; stroke: #e6e8f0; stroke-width: 0.8; stroke-linecap: square"/>
     </g>
     <g id="line2d_15">
      <g>
       <use xlink:href="#m6996fb2e0a" x="484.805494" y="415.008" style="fill: #1f2430; stroke: #1f2430; stroke-width: 0.8"/>
      </g>
     </g>
     <g id="text_4">
      <text style="font-size: 10px; font-family: 'Noto Sans CJK SC'; text-anchor: middle; fill: #1f2430" x="484.805494" y="430.808" transform="rotate(-0 484.805494 430.808)">15</text>
     </g>
    </g>
    <g id="xtick_5">
     <g id="line2d_16">
      <path d="M 560.223325 415.008
L 560.223325 94.32
" clip-path="url(#pef31553c0d)" style="fill: none; stroke: #e6e8f0; stroke-width: 0.8; stroke-linecap: square"/>
     </g>
     <g id="line2d_17">
      <g>
       <use xlink:href="#m6996fb2e0a" x="560.223325" y="415.008" style="fill: #1f2430; stroke: #1f2430; stroke-width: 0.8"/>
      </g>
     </g>
     <g id="text_5">
      <text style="font-size: 10px; font-family: 'Noto Sans CJK SC'; text-anchor: middle; fill: #1f2430" x="560.223325" y="430.808" transform="rotate(-0 560.223325 430.808)">20</text>
     </g>
    </g>
    <g id="xtick_6">
     <g id="line2d_18">
      <path d="M 635.641157 415.008
L 635.641157 94.32
" clip-path="url(#pef31553c0d)" style="fill: none; stroke: #e6e8f0; stroke-width: 0.8; stroke-linecap: square"/>
     </g>
     <g id="line2d_19">
      <g>
       <use xlink:href="#m6996fb2e0a" x="635.641157" y="415.008" style="fill: #1f2430; stroke: #1f2430; stroke-width: 0.8"/>
      </g>
     </g>
     <g id="text_6">
      <text style="font-size: 10px; font-family: 'Noto Sans CJK SC'; text-anchor: middle; fill: #1f2430" x="635.641157" y="430.808" transform="rotate(-0 635.641157 430.808)">25</text>
     </g>
    </g>
    <g id="xtick_7">
     <g id="line2d_20">
      <path d="M 711.058988 415.008
L 711.058988 94.32
" clip-path="url(#pef31553c0d)" style="fill: none; stroke: #e6e8f0; stroke-width: 0.8; stroke-linecap: square"/>
     </g>
     <g id="line2d_21">
      <g>
       <use xlink:href="#m6996fb2e0a" x="711.058988" y="415.008" style="fill: #1f2430; stroke: #1f2430; stroke-width: 0.8"/>
      </g>
     </g>
     <g id="text_7">
      <text style="font-size: 10px; font-family: 'Noto Sans CJK SC'; text-anchor: middle; fill: #1f2430" x="711.058988" y="430.808" transform="rotate(-0 711.058988 430.808)">30</text>
     </g>
    </g>
    <g id="xtick_8">
     <g id="line2d_22">
      <path d="M 786.476819 415.008
L 786.476819 94.32
" clip-path="url(#pef31553c0d)" style="fill: none; stroke: #e6e8f0; stroke-width: 0.8; stroke-linecap: square"/>
     </g>
     <g id="line2d_23">
      <g>
       <use xlink:href="#m6996fb2e0a" x="786.476819" y="415.008" style="fill: #1f2430; stroke: #1f2430; stroke-width: 0.8"/>
      </g>
     </g>
     <g id="text_8">
      <text style="font-size: 10px; font-family: 'Noto Sans CJK SC'; text-anchor: middle; fill: #1f2430" x="786.476819" y="430.808" transform="rotate(-0 786.476819 430.808)">35</text>
     </g>
    </g>
    <g id="xtick_9">
     <g id="line2d_24">
      <path d="M 861.894651 415.008
L 861.894651 94.32
" clip-path="url(#pef31553c0d)" style="fill: none; stroke: #e6e8f0; stroke-width: 0.8; stroke-linecap: square"/>
     </g>
     <g id="line2d_25">
      <g>
       <use xlink:href="#m6996fb2e0a" x="861.894651" y="415.008" style="fill: #1f2430; stroke: #1f2430; stroke-width: 0.8"/>
      </g>
     </g>
     <g id="text_9">
      <text style="font-size: 10px; font-family: 'Noto Sans CJK SC'; text-anchor: middle; fill: #1f2430" x="861.894651" y="430.808" transform="rotate(-0 861.894651 430.808)">40</text>
     </g>
    </g>
    <g id="text_10">
     <text style="font-size: 10px; font-family: 'Noto Sans CJK SC'; text-anchor: middle; fill: #1f2430" x="571.536" y="444.808" transform="rotate(-0 571.536 444.808)">FPS</text>
    </g>
   </g>
   <g id="matplotlib.axis_2"/>
   <g id="line2d_26">
    <path d="M 711.058988 415.008
L 711.058988 94.32
" clip-path="url(#pef31553c0d)" style="fill: none; stroke-dasharray: 4.4,3.3; stroke-dashoffset: 0; stroke: #464c55; stroke-width: 1.1"/>
   </g>
   <g id="patch_9">
    <path d="M 258.552 415.008
L 258.552 94.32
" style="fill: none; stroke: #c5cad3; stroke-width: 0.8; stroke-linejoin: miter; stroke-linecap: square"/>
   </g>
   <g id="patch_10">
    <path d="M 884.52 415.008
L 884.52 94.32
" style="fill: none; stroke: #c5cad3; stroke-width: 0.8; stroke-linejoin: miter; stroke-linecap: square"/>
   </g>
   <g id="patch_11">
    <path d="M 258.552 415.008
L 884.52 415.008
" style="fill: none; stroke: #c5cad3; stroke-width: 0.8; stroke-linejoin: miter; stroke-linecap: square"/>
   </g>
   <g id="patch_12">
    <path d="M 258.552 94.32
L 884.52 94.32
" style="fill: none; stroke: #c5cad3; stroke-width: 0.8; stroke-linejoin: miter; stroke-linecap: square"/>
   </g>
   <g id="patch_13">
    <path d="M 258.552 111.109948
L 381.523241 111.109948
L 381.523241 137.973864
L 258.552 137.973864
z
" clip-path="url(#pef31553c0d)" style="fill: #71b436; opacity: 0.95; stroke: #386411; stroke-width: 0.85; stroke-linejoin: miter"/>
   </g>
   <g id="patch_14">
    <path d="M 258.552 144.689843
L 411.594489 144.689843
L 411.594489 171.553759
L 258.552 171.553759
z
" clip-path="url(#pef31553c0d)" style="fill: url(#h266d9ed54c); opacity: 0.95; stroke: #386411; stroke-width: 0.85; stroke-linejoin: miter"/>
   </g>
   <g id="patch_15">
    <path d="M 258.552 178.269738
L 503.999432 178.269738
L 503.999432 205.133654
L 258.552 205.133654
z
" clip-path="url(#pef31553c0d)" style="fill: #71b436; opacity: 0.95; stroke: #386411; stroke-width: 0.85; stroke-linejoin: miter"/>
   </g>
   <g id="patch_16">
    <path d="M 258.552 211.849634
L 549.963916 211.849634
L 549.963916 238.71355
L 258.552 238.71355
z
" clip-path="url(#pef31553c0d)" style="fill: url(#h266d9ed54c); opacity: 0.95; stroke: #386411; stroke-width: 0.85; stroke-linejoin: miter"/>
   </g>
   <g id="patch_17">
    <path d="M 258.552 245.429529
L 596.232253 245.429529
L 596.232253 272.293445
L 258.552 272.293445
z
" clip-path="url(#pef31553c0d)" style="fill: url(#h1da0bb74c5); opacity: 0.95; stroke: #8a3a6f; stroke-width: 0.85; stroke-linejoin: miter"/>
   </g>
   <g id="patch_18">
    <path d="M 258.552 279.009424
L 616.360596 279.009424
L 616.360596 305.87334
L 258.552 305.87334
z
" clip-path="url(#pef31553c0d)" style="fill: url(#h7e20ca8f39); opacity: 0.95; stroke: #8a3a6f; stroke-width: 0.85; stroke-linejoin: miter"/>
   </g>
   <g id="patch_19">
    <path d="M 258.552 312.589319
L 693.485437 312.589319
L 693.485437 339.453236
L 258.552 339.453236
z
" clip-path="url(#pef31553c0d)" style="fill: url(#hefdaea4f5e); opacity: 0.95; stroke: #8a3a6f; stroke-width: 0.85; stroke-linejoin: miter"/>
   </g>
   <g id="patch_20">
    <path d="M 258.552 346.169215
L 769.334091 346.169215
L 769.334091 373.033131
L 258.552 373.033131
z
" clip-path="url(#pef31553c0d)" style="fill: url(#hefdaea4f5e); opacity: 0.95; stroke: #8a3a6f; stroke-width: 0.85; stroke-linejoin: miter"/>
   </g>
   <g id="patch_21">
    <path d="M 258.552 379.74911
L 846.526754 379.74911
L 846.526754 406.613026
L 258.552 406.613026
z
" clip-path="url(#pef31553c0d)" style="fill: #71b436; opacity: 0.95; stroke: #386411; stroke-width: 0.85; stroke-linejoin: miter"/>
   </g>
   <g id="text_11">
    <text style="font-size: 9px; font-family: 'Noto Sans CJK SC'; text-anchor: start; fill: #464c55" x="714.82988" y="107.142371" transform="rotate(-0 714.82988 107.142371)">30 FPS</text>
   </g>
   <g id="text_12">
    <text style="font-size: 9.5px; font-family: 'DejaVu Sans Mono'; text-anchor: start; fill: #1f2430" x="389.819203" y="127.009679" transform="rotate(-0 389.819203 127.009679)">8.2</text>
   </g>
   <g id="text_13">
    <text style="font-size: 9.5px; font-family: 'DejaVu Sans Mono'; text-anchor: start; fill: #1f2430" x="419.890451" y="160.589574" transform="rotate(-0 419.890451 160.589574)">10.1</text>
   </g>
   <g id="text_14">
    <text style="font-size: 9.5px; font-family: 'DejaVu Sans Mono'; text-anchor: start; fill: #1f2430" x="512.295394" y="194.16947" transform="rotate(-0 512.295394 194.16947)">16.3</text>
   </g>
   <g id="text_15">
    <text style="font-size: 9.5px; font-family: 'DejaVu Sans Mono'; text-anchor: start; fill: #1f2430" x="558.259877" y="227.749365" transform="rotate(-0 558.259877 227.749365)">19.3</text>
   </g>
   <g id="text_16">
    <text style="font-size: 9.5px; font-family: 'DejaVu Sans Mono'; text-anchor: start; fill: #1f2430" x="604.528214" y="261.32926" transform="rotate(-0 604.528214 261.32926)">22.4</text>
   </g>
   <g id="text_17">
    <text style="font-size: 9.5px; font-family: 'DejaVu Sans Mono'; text-anchor: start; fill: #1f2430" x="624.656557" y="294.909156" transform="rotate(-0 624.656557 294.909156)">23.7</text>
   </g>
   <g id="text_18">
    <text style="font-size: 9.5px; font-family: 'DejaVu Sans Mono'; text-anchor: start; fill: #1f2430" x="701.781399" y="328.489051" transform="rotate(-0 701.781399 328.489051)">28.8</text>
   </g>
   <g id="text_19">
    <text style="font-size: 9.5px; font-family: 'DejaVu Sans Mono'; text-anchor: start; fill: #1f2430" x="777.630053" y="362.068946" transform="rotate(-0 777.630053 362.068946)">33.9</text>
   </g>
   <g id="text_20">
    <text style="font-size: 9.5px; font-family: 'DejaVu Sans Mono'; text-anchor: start; fill: #1f2430" x="854.822716" y="395.648842" transform="rotate(-0 854.822716 395.648842)">39.0</text>
   </g>
   <g id="text_21">
    <text style="font-size: 9px; font-family: 'DejaVu Sans Mono'; text-anchor: middle; fill: #6f768a" x="75.769344" y="84.140691" transform="rotate(-0 75.769344 84.140691)">Input</text>
   </g>
   <g id="text_22">
    <text style="font-size: 9px; font-family: 'DejaVu Sans Mono'; text-anchor: start; fill: #6f768a" x="124.594848" y="84.140691" transform="rotate(-0 124.594848 84.140691)">Heads</text>
   </g>
   <g id="text_23">
    <text style="font-size: 9px; font-family: 'DejaVu Sans Mono'; text-anchor: start; fill: #6f768a" x="192.199392" y="84.140691" transform="rotate(-0 192.199392 84.140691)">Width</text>
   </g>
   <g id="text_24">
    <text style="font-size: 9px; font-family: 'DejaVu Sans Mono'; text-anchor: start; fill: #6f768a" x="226.001664" y="84.140691" transform="rotate(-0 226.001664 84.140691)">NPU</text>
   </g>
   <g id="text_25">
    <text style="font-weight: 700; font-size: 10.5px; font-family: 'DejaVu Sans Mono'; text-anchor: middle; fill: #1f2430" x="75.769344" y="144.059392" transform="rotate(-0 75.769344 144.059392)">1280</text>
   </g>
   <g id="text_26">
    <text style="font-weight: 700; font-size: 10.5px; font-family: 'DejaVu Sans Mono'; text-anchor: middle; fill: #1f2430" x="75.769344" y="261.589026" transform="rotate(-0 75.769344 261.589026)">960</text>
   </g>
   <g id="text_27">
    <text style="font-weight: 700; font-size: 10.5px; font-family: 'DejaVu Sans Mono'; text-anchor: middle; fill: #1f2430" x="75.769344" y="362.328712" transform="rotate(-0 75.769344 362.328712)">896</text>
   </g>
   <g id="text_28">
    <text style="font-weight: 700; font-size: 10.5px; font-family: 'DejaVu Sans Mono'; text-anchor: middle; fill: #1f2430" x="75.769344" y="395.908607" transform="rotate(-0 75.769344 395.908607)">640</text>
   </g>
   <g id="text_29">
    <text style="font-size: 9.5px; font-family: 'DejaVu Sans Mono'; text-anchor: start; fill: #1f2430" x="124.594848" y="127.009679" transform="rotate(-0 124.594848 127.009679)">P3/P4/P5</text>
   </g>
   <g id="text_30">
    <text style="font-size: 9.5px; font-family: 'DejaVu Sans Mono'; text-anchor: start; fill: #1f2430" x="192.199392" y="127.009679" transform="rotate(-0 192.199392 127.009679)">1.0x</text>
   </g>
   <g id="text_31">
    <text style="font-size: 9.5px; font-family: 'DejaVu Sans Mono'; text-anchor: start; fill: #1f2430" x="226.001664" y="127.009679" transform="rotate(-0 226.001664 127.009679)">Core0</text>
   </g>
   <g id="text_32">
    <text style="font-size: 9.5px; font-family: 'DejaVu Sans Mono'; text-anchor: start; fill: #1f2430" x="124.594848" y="160.589574" transform="rotate(-0 124.594848 160.589574)">P3/P4/P5</text>
   </g>
   <g id="text_33">
    <text style="font-size: 9.5px; font-family: 'DejaVu Sans Mono'; text-anchor: start; fill: #1f2430" x="192.199392" y="160.589574" transform="rotate(-0 192.199392 160.589574)">1.0x</text>
   </g>
   <g id="text_34">
    <text style="font-size: 9.5px; font-family: 'DejaVu Sans Mono'; text-anchor: start; fill: #1f2430" x="226.001664" y="160.589574" transform="rotate(-0 226.001664 160.589574)">Core0+1</text>
   </g>
   <g id="text_35">
    <text style="font-size: 9.5px; font-family: 'DejaVu Sans Mono'; text-anchor: start; fill: #1f2430" x="124.594848" y="194.16947" transform="rotate(-0 124.594848 194.16947)">P3/P4/P5</text>
   </g>
   <g id="text_36">
    <text style="font-size: 9.5px; font-family: 'DejaVu Sans Mono'; text-anchor: start; fill: #1f2430" x="192.199392" y="194.16947" transform="rotate(-0 192.199392 194.16947)">1.0x</text>
   </g>
   <g id="text_37">
    <text style="font-size: 9.5px; font-family: 'DejaVu Sans Mono'; text-anchor: start; fill: #1f2430" x="226.001664" y="194.16947" transform="rotate(-0 226.001664 194.16947)">Core0</text>
   </g>
   <g id="text_38">
    <text style="font-size: 9.5px; font-family: 'DejaVu Sans Mono'; text-anchor: start; fill: #1f2430" x="124.594848" y="227.749365" transform="rotate(-0 124.594848 227.749365)">P3/P4/P5</text>
   </g>
   <g id="text_39">
    <text style="font-size: 9.5px; font-family: 'DejaVu Sans Mono'; text-anchor: start; fill: #1f2430" x="192.199392" y="227.749365" transform="rotate(-0 192.199392 227.749365)">1.0x</text>
   </g>
   <g id="text_40">
    <text style="font-size: 9.5px; font-family: 'DejaVu Sans Mono'; text-anchor: start; fill: #1f2430" x="226.001664" y="227.749365" transform="rotate(-0 226.001664 227.749365)">Core0+1</text>
   </g>
   <g id="text_41">
    <text style="font-size: 9.5px; font-family: 'DejaVu Sans Mono'; text-anchor: start; fill: #1f2430" x="124.594848" y="261.32926" transform="rotate(-0 124.594848 261.32926)">P3/P4</text>
   </g>
   <g id="text_42">
    <text style="font-size: 9.5px; font-family: 'DejaVu Sans Mono'; text-anchor: start; fill: #1f2430" x="192.199392" y="261.32926" transform="rotate(-0 192.199392 261.32926)">1.0x</text>
   </g>
   <g id="text_43">
    <text style="font-size: 9.5px; font-family: 'DejaVu Sans Mono'; text-anchor: start; fill: #1f2430" x="226.001664" y="261.32926" transform="rotate(-0 226.001664 261.32926)">Core0+1</text>
   </g>
   <g id="text_44">
    <text style="font-size: 9.5px; font-family: 'DejaVu Sans Mono'; text-anchor: start; fill: #1f2430" x="124.594848" y="294.909156" transform="rotate(-0 124.594848 294.909156)">P3/P4</text>
   </g>
   <g id="text_45">
    <text style="font-size: 9.5px; font-family: 'DejaVu Sans Mono'; text-anchor: start; fill: #1f2430" x="192.199392" y="294.909156" transform="rotate(-0 192.199392 294.909156)">0.75x</text>
   </g>
   <g id="text_46">
    <text style="font-size: 9.5px; font-family: 'DejaVu Sans Mono'; text-anchor: start; fill: #1f2430" x="226.001664" y="294.909156" transform="rotate(-0 226.001664 294.909156)">Core0+1</text>
   </g>
   <g id="text_47">
    <text style="font-size: 9.5px; font-family: 'DejaVu Sans Mono'; text-anchor: start; fill: #1f2430" x="124.594848" y="328.489051" transform="rotate(-0 124.594848 328.489051)">P3/P4</text>
   </g>
   <g id="text_48">
    <text style="font-size: 9.5px; font-family: 'DejaVu Sans Mono'; text-anchor: start; fill: #1f2430" x="192.199392" y="328.489051" transform="rotate(-0 192.199392 328.489051)">0.5x</text>
   </g>
   <g id="text_49">
    <text style="font-size: 9.5px; font-family: 'DejaVu Sans Mono'; text-anchor: start; fill: #1f2430" x="226.001664" y="328.489051" transform="rotate(-0 226.001664 328.489051)">Core0+1</text>
   </g>
   <g id="text_50">
    <text style="font-size: 9.5px; font-family: 'DejaVu Sans Mono'; text-anchor: start; fill: #1f2430" x="124.594848" y="362.068946" transform="rotate(-0 124.594848 362.068946)">P3/P4</text>
   </g>
   <g id="text_51">
    <text style="font-size: 9.5px; font-family: 'DejaVu Sans Mono'; text-anchor: start; fill: #1f2430" x="192.199392" y="362.068946" transform="rotate(-0 192.199392 362.068946)">0.5x</text>
   </g>
   <g id="text_52">
    <text style="font-size: 9.5px; font-family: 'DejaVu Sans Mono'; text-anchor: start; fill: #1f2430" x="226.001664" y="362.068946" transform="rotate(-0 226.001664 362.068946)">Core0+1</text>
   </g>
   <g id="text_53">
    <text style="font-size: 9.5px; font-family: 'DejaVu Sans Mono'; text-anchor: start; fill: #1f2430" x="124.594848" y="395.648842" transform="rotate(-0 124.594848 395.648842)">P3/P4/P5</text>
   </g>
   <g id="text_54">
    <text style="font-size: 9.5px; font-family: 'DejaVu Sans Mono'; text-anchor: start; fill: #1f2430" x="192.199392" y="395.648842" transform="rotate(-0 192.199392 395.648842)">1.0x</text>
   </g>
   <g id="text_55">
    <text style="font-size: 9.5px; font-family: 'DejaVu Sans Mono'; text-anchor: start; fill: #1f2430" x="226.001664" y="395.648842" transform="rotate(-0 226.001664 395.648842)">Core0</text>
   </g>
   <g id="legend_1">
    <g id="text_56">
     <text style="font-size: 9px; font-family: 'Noto Sans CJK SC'; text-anchor: start; fill: #1f2430" x="788.870195" y="113.36688" transform="rotate(-0 788.870195 113.36688)">Heads / width</text>
    </g>
    <g id="patch_22">
     <path d="M 788.870195 127.122442
L 806.470195 127.122442
L 806.470195 120.962442
L 788.870195 120.962442
z
" style="fill: #71b436; stroke: #386411; stroke-linejoin: miter"/>
    </g>
    <g id="text_57">
     <text style="font-size: 8.8px; font-family: 'Noto Sans CJK SC'; text-anchor: start; fill: #1f2430" x="813.510195" y="127.122442" transform="rotate(-0 813.510195 127.122442)">P3/P4/P5 1.0x</text>
    </g>
    <g id="patch_23">
     <path d="M 788.870195 140.842192
L 806.470195 140.842192
L 806.470195 134.682192
L 788.870195 134.682192
z
" style="fill: #bd569b; stroke: #8a3a6f; stroke-linejoin: miter"/>
    </g>
    <g id="text_58">
     <text style="font-size: 8.8px; font-family: 'Noto Sans CJK SC'; text-anchor: start; fill: #1f2430" x="813.510195" y="140.842192" transform="rotate(-0 813.510195 140.842192)">P3/P4 1.0x</text>
    </g>
    <g id="patch_24">
     <path d="M 788.870195 154.561942
L 806.470195 154.561942
L 806.470195 148.401942
L 788.870195 148.401942
z
" style="fill: #f390ca; stroke: #8a3a6f; stroke-linejoin: miter"/>
    </g>
    <g id="text_59">
     <text style="font-size: 8.8px; font-family: 'Noto Sans CJK SC'; text-anchor: start; fill: #1f2430" x="813.510195" y="154.561942" transform="rotate(-0 813.510195 154.561942)">P3/P4 0.75x</text>
    </g>
    <g id="patch_25">
     <path d="M 788.870195 168.281692
L 806.470195 168.281692
L 806.470195 162.121692
L 788.870195 162.121692
z
" style="fill: #f5bacc; stroke: #8a3a6f; stroke-linejoin: miter"/>
    </g>
    <g id="text_60">
     <text style="font-size: 8.8px; font-family: 'Noto Sans CJK SC'; text-anchor: start; fill: #1f2430" x="813.510195" y="168.281692" transform="rotate(-0 813.510195 168.281692)">P3/P4 0.5x</text>
    </g>
   </g>
   <g id="legend_2">
    <g id="text_61">
     <text style="font-size: 9px; font-family: 'Noto Sans CJK SC'; text-anchor: start; fill: #1f2430" x="771.674445" y="241.64208" transform="rotate(-0 771.674445 241.64208)">NPU mask</text>
    </g>
    <g id="patch_26">
     <path d="M 771.674445 254.86608
L 789.274445 254.86608
L 789.274445 248.70608
L 771.674445 248.70608
z
" style="fill: #f4f5f7; stroke: #386411; stroke-linejoin: miter"/>
    </g>
    <g id="text_62">
     <text style="font-size: 8.8px; font-family: 'Noto Sans CJK SC'; text-anchor: start; fill: #1f2430" x="796.314445" y="254.86608" transform="rotate(-0 796.314445 254.86608)">Core0</text>
    </g>
    <g id="patch_27">
     <path d="M 771.674445 268.06608
L 789.274445 268.06608
L 789.274445 261.90608
L 771.674445 261.90608
z
" style="fill: url(#h67cb244aec); stroke: #386411; stroke-linejoin: miter"/>
    </g>
    <g id="text_63">
     <text style="font-size: 8.8px; font-family: 'Noto Sans CJK SC'; text-anchor: start; fill: #1f2430" x="796.314445" y="268.06608" transform="rotate(-0 796.314445 268.06608)">Core0+1 P3/P4/P5</text>
    </g>
    <g id="patch_28">
     <path d="M 771.674445 281.78583
L 789.274445 281.78583
L 789.274445 275.62583
L 771.674445 275.62583
z
" style="fill: url(#h94b99e0829); stroke: #8a3a6f; stroke-linejoin: miter"/>
    </g>
    <g id="text_64">
     <text style="font-size: 8.8px; font-family: 'Noto Sans CJK SC'; text-anchor: start; fill: #1f2430" x="796.314445" y="281.78583" transform="rotate(-0 796.314445 281.78583)">Core0+1 P3/P4</text>
    </g>
   </g>
  </g>
  <g id="text_65">
   <text style="font-size: 15px; font-family: 'Noto Sans CJK SC'; text-anchor: start; fill: #1f2430" x="113.4" y="14.148" transform="rotate(-0 113.4 14.148)">RK3576 YOLO FPS 对比</text>
  </g>
  <g id="text_66">
   <text style="font-size: 9.2px; font-family: 'Noto Sans CJK SC'; text-anchor: start; fill: #6f768a" x="113.4" y="32.0688" transform="rotate(-0 113.4 32.0688)">P3/P4/P5 表示检测头使用的特征尺度：P3 偏小目标，P4 偏中等目标，P5 偏大目标。</text>
  </g>
  <g id="text_67">
   <text style="font-size: 9.2px; font-family: 'Noto Sans CJK SC'; text-anchor: start; fill: #6f768a" x="113.4" y="46.2168" transform="rotate(-0 113.4 46.2168)">RK3576 NPU 共有两个核心：Core0 和 Core1；Core0+1 表示双核运行。颜色越浅表示通道压缩越强。</text>
  </g>
 </g>
 <defs>
  <clipPath id="pef31553c0d">
   <rect x="258.552" y="94.32" width="625.968" height="320.688"/>
  </clipPath>
 </defs>
 <defs>
  <pattern id="h266d9ed54c" patternUnits="userSpaceOnUse" x="0" y="0" width="72" height="72">
   <rect x="0" y="0" width="73" height="73" fill="#71b436"/>
   <path d="M -36 36
L 36 -36
M -32 40
L 40 -32
M -28 44
L 44 -28
M -24 48
L 48 -24
M -20 52
L 52 -20
M -16 56
L 56 -16
M -12 60
L 60 -12
M -8 64
L 64 -8
M -4 68
L 68 -4
M 0 72
L 72 0
M 4 76
L 76 4
M 8 80
L 80 8
M 12 84
L 84 12
M 16 88
L 88 16
M 20 92
L 92 20
M 24 96
L 96 24
M 28 100
L 100 28
M 32 104
L 104 32
M 36 108
L 108 36
" style="fill: #386411; stroke: #386411; stroke-width: 0.8; stroke-linecap: butt; stroke-linejoin: miter; stroke-opacity: 0.95"/>
  </pattern>
  <pattern id="h1da0bb74c5" patternUnits="userSpaceOnUse" x="0" y="0" width="72" height="72">
   <rect x="0" y="0" width="73" height="73" fill="#bd569b"/>
   <path d="M -36 36
L 36 -36
M -32 40
L 40 -32
M -28 44
L 44 -28
M -24 48
L 48 -24
M -20 52
L 52 -20
M -16 56
L 56 -16
M -12 60
L 60 -12
M -8 64
L 64 -8
M -4 68
L 68 -4
M 0 72
L 72 0
M 4 76
L 76 4
M 8 80
L 80 8
M 12 84
L 84 12
M 16 88
L 88 16
M 20 92
L 92 20
M 24 96
L 96 24
M 28 100
L 100 28
M 32 104
L 104 32
M 36 108
L 108 36
" style="fill: #8a3a6f; stroke: #8a3a6f; stroke-width: 0.8; stroke-linecap: butt; stroke-linejoin: miter; stroke-opacity: 0.95"/>
  </pattern>
  <pattern id="h7e20ca8f39" patternUnits="userSpaceOnUse" x="0" y="0" width="72" height="72">
   <rect x="0" y="0" width="73" height="73" fill="#f390ca"/>
   <path d="M -36 36
L 36 -36
M -32 40
L 40 -32
M -28 44
L 44 -28
M -24 48
L 48 -24
M -20 52
L 52 -20
M -16 56
L 56 -16
M -12 60
L 60 -12
M -8 64
L 64 -8
M -4 68
L 68 -4
M 0 72
L 72 0
M 4 76
L 76 4
M 8 80
L 80 8
M 12 84
L 84 12
M 16 88
L 88 16
M 20 92
L 92 20
M 24 96
L 96 24
M 28 100
L 100 28
M 32 104
L 104 32
M 36 108
L 108 36
" style="fill: #8a3a6f; stroke: #8a3a6f; stroke-width: 0.8; stroke-linecap: butt; stroke-linejoin: miter; stroke-opacity: 0.95"/>
  </pattern>
  <pattern id="hefdaea4f5e" patternUnits="userSpaceOnUse" x="0" y="0" width="72" height="72">
   <rect x="0" y="0" width="73" height="73" fill="#f5bacc"/>
   <path d="M -36 36
L 36 -36
M -32 40
L 40 -32
M -28 44
L 44 -28
M -24 48
L 48 -24
M -20 52
L 52 -20
M -16 56
L 56 -16
M -12 60
L 60 -12
M -8 64
L 64 -8
M -4 68
L 68 -4
M 0 72
L 72 0
M 4 76
L 76 4
M 8 80
L 80 8
M 12 84
L 84 12
M 16 88
L 88 16
M 20 92
L 92 20
M 24 96
L 96 24
M 28 100
L 100 28
M 32 104
L 104 32
M 36 108
L 108 36
" style="fill: #8a3a6f; stroke: #8a3a6f; stroke-width: 0.8; stroke-linecap: butt; stroke-linejoin: miter; stroke-opacity: 0.95"/>
  </pattern>
  <pattern id="h67cb244aec" patternUnits="userSpaceOnUse" x="0" y="0" width="72" height="72">
   <rect x="0" y="0" width="73" height="73" fill="#f4f5f7"/>
   <path d="M -36 36
L 36 -36
M -32 40
L 40 -32
M -28 44
L 44 -28
M -24 48
L 48 -24
M -20 52
L 52 -20
M -16 56
L 56 -16
M -12 60
L 60 -12
M -8 64
L 64 -8
M -4 68
L 68 -4
M 0 72
L 72 0
M 4 76
L 76 4
M 8 80
L 80 8
M 12 84
L 84 12
M 16 88
L 88 16
M 20 92
L 92 20
M 24 96
L 96 24
M 28 100
L 100 28
M 32 104
L 104 32
M 36 108
L 108 36
" style="fill: #386411; stroke: #386411; stroke-width: 0.8; stroke-linecap: butt; stroke-linejoin: miter"/>
  </pattern>
  <pattern id="h94b99e0829" patternUnits="userSpaceOnUse" x="0" y="0" width="72" height="72">
   <rect x="0" y="0" width="73" height="73" fill="#f4f5f7"/>
   <path d="M -36 36
L 36 -36
M -32 40
L 40 -32
M -28 44
L 44 -28
M -24 48
L 48 -24
M -20 52
L 52 -20
M -16 56
L 56 -16
M -12 60
L 60 -12
M -8 64
L 64 -8
M -4 68
L 68 -4
M 0 72
L 72 0
M 4 76
L 76 4
M 8 80
L 80 8
M 12 84
L 84 12
M 16 88
L 88 16
M 20 92
L 92 20
M 24 96
L 96 24
M 28 100
L 100 28
M 32 104
L 104 32
M 36 108
L 108 36
" style="fill: #8a3a6f; stroke: #8a3a6f; stroke-width: 0.8; stroke-linecap: butt; stroke-linejoin: miter"/>
  </pattern>
 </defs>
</svg>
