<svg xmlns="http://www.w3.org/2000/svg" width="1040" height="650" viewBox="0 0 1040 650" role="img">
<style>
  text { font-family: Inter, ui-sans-serif, system-ui, -apple-system, BlinkMacSystemFont, "Segoe UI", sans-serif; fill: #1f2937; }
  .title { font-size: 24px; font-weight: 760; }
  .subtitle { font-size: 13px; fill: #64748b; }
  .axis { font-size: 13px; font-weight: 650; fill: #1f2937; }
  .tick { font-size: 11px; fill: #64748b; font-variant-numeric: tabular-nums; }
  .small { font-size: 11px; fill: #1f2937; font-variant-numeric: tabular-nums; }
  .legend { font-size: 12px; fill: #1f2937; }
  .rowlabel { font-size: 13px; font-weight: 650; fill: #1f2937; }
  .heat { font-size: 14px; font-weight: 750; fill: #1f2937; font-variant-numeric: tabular-nums; }
  .pointLabel { font-size: 11px; font-weight: 650; fill: #1f2937; }
  .callout { font-size: 12px; font-weight: 650; fill: #64748b; }
  .callout.strong { fill: #1f2937; }
  .matrixStatus { font-size: 12px; font-weight: 820; letter-spacing: 0; }
  .matrixValue { font-size: 22px; font-weight: 780; fill: #1f2937; font-variant-numeric: tabular-nums; }
  .note { font-size: 11px; fill: #64748b; }
</style>
<rect x="0" y="0" width="1040" height="650" fill="#ffffff"/>
<text x="36" y="42" class="title">Max usable distance</text>
<text x="36" y="66" class="subtitle">target error &lt;=10; colors split at 11.9 and 23.8</text>
<text x="168" y="92" class="axis">max usable distance (m)</text>
<rect x="353" y="80" width="22" height="14" fill="#d9e4ed"/>
<text x="383" y="92" class="legend">&gt;=23.8</text>
<rect x="481" y="80" width="22" height="14" fill="#eee5cc"/>
<text x="511" y="92" class="legend">11.9-23.8</text>
<rect x="609" y="80" width="22" height="14" fill="#ead8dd"/>
<text x="639" y="92" class="legend">&lt;11.9</text>
<text x="257" y="136" text-anchor="middle" class="rowlabel">0.001</text>
<text x="435" y="136" text-anchor="middle" class="rowlabel">0.01</text>
<text x="613" y="136" text-anchor="middle" class="rowlabel">0.1</text>
<text x="791" y="136" text-anchor="middle" class="rowlabel">1</text>
<text x="524" y="106" text-anchor="middle" class="axis">RMS error (px)</text>
<text x="96" y="136" text-anchor="middle" class="axis">baseline (cm)</text>
<text x="150" y="198" text-anchor="end" class="rowlabel">2.8</text>
<rect x="168" y="158" width="172" height="64" fill="#d9e4ed"/>
<text x="254" y="199" text-anchor="middle" class="matrixValue">83.2</text>
<rect x="346" y="158" width="172" height="64" fill="#d9e4ed"/>
<text x="432" y="199" text-anchor="middle" class="matrixValue">26.3</text>
<rect x="524" y="158" width="172" height="64" fill="#ead8dd"/>
<text x="610" y="199" text-anchor="middle" class="matrixValue">8.3</text>
<rect x="702" y="158" width="172" height="64" fill="#ead8dd"/>
<text x="788" y="199" text-anchor="middle" class="matrixValue">2.6</text>
<text x="150" y="268" text-anchor="end" class="rowlabel">5</text>
<rect x="168" y="228" width="172" height="64" fill="#d9e4ed"/>
<text x="254" y="269" text-anchor="middle" class="matrixValue">111.2</text>
<rect x="346" y="228" width="172" height="64" fill="#d9e4ed"/>
<text x="432" y="269" text-anchor="middle" class="matrixValue">35.2</text>
<rect x="524" y="228" width="172" height="64" fill="#ead8dd"/>
<text x="610" y="269" text-anchor="middle" class="matrixValue">11.1</text>
<rect x="702" y="228" width="172" height="64" fill="#ead8dd"/>
<text x="788" y="269" text-anchor="middle" class="matrixValue">3.5</text>
<text x="150" y="338" text-anchor="end" class="rowlabel">10</text>
<rect x="168" y="298" width="172" height="64" fill="#d9e4ed"/>
<text x="254" y="339" text-anchor="middle" class="matrixValue">157.2</text>
<rect x="346" y="298" width="172" height="64" fill="#d9e4ed"/>
<text x="432" y="339" text-anchor="middle" class="matrixValue">49.7</text>
<rect x="524" y="298" width="172" height="64" fill="#eee5cc"/>
<text x="610" y="339" text-anchor="middle" class="matrixValue">15.7</text>
<rect x="702" y="298" width="172" height="64" fill="#ead8dd"/>
<text x="788" y="339" text-anchor="middle" class="matrixValue">5.0</text>
<text x="150" y="408" text-anchor="end" class="rowlabel">20</text>
<rect x="168" y="368" width="172" height="64" fill="#d9e4ed"/>
<text x="254" y="409" text-anchor="middle" class="matrixValue">222.3</text>
<rect x="346" y="368" width="172" height="64" fill="#d9e4ed"/>
<text x="432" y="409" text-anchor="middle" class="matrixValue">70.3</text>
<rect x="524" y="368" width="172" height="64" fill="#eee5cc"/>
<text x="610" y="409" text-anchor="middle" class="matrixValue">22.2</text>
<rect x="702" y="368" width="172" height="64" fill="#ead8dd"/>
<text x="788" y="409" text-anchor="middle" class="matrixValue">7.0</text>
<text x="150" y="478" text-anchor="end" class="rowlabel">50</text>
<rect x="168" y="438" width="172" height="64" fill="#d9e4ed"/>
<text x="254" y="479" text-anchor="middle" class="matrixValue">351.5</text>
<rect x="346" y="438" width="172" height="64" fill="#d9e4ed"/>
<text x="432" y="479" text-anchor="middle" class="matrixValue">111.2</text>
<rect x="524" y="438" width="172" height="64" fill="#d9e4ed"/>
<text x="610" y="479" text-anchor="middle" class="matrixValue">35.2</text>
<rect x="702" y="438" width="172" height="64" fill="#ead8dd"/>
<text x="788" y="479" text-anchor="middle" class="matrixValue">11.1</text>
<text x="524" y="616" text-anchor="middle" class="note">Cell value: maximum ball distance satisfying median absolute depth error &lt;= 10 cm.</text>
</svg>