<svg xmlns="http://www.w3.org/2000/svg" width="1080" height="680" viewBox="0 0 1080 680" role="img">
<style>
  text { font-family: Inter, ui-sans-serif, system-ui, -apple-system, BlinkMacSystemFont, "Segoe UI", sans-serif; fill: #1f2937; }
  .title { font-size: 24px; font-weight: 760; }
  .subtitle { font-size: 13px; fill: #64748b; }
  .axis { font-size: 13px; font-weight: 650; fill: #1f2937; }
  .tick { font-size: 11px; fill: #64748b; font-variant-numeric: tabular-nums; }
  .small { font-size: 11px; fill: #1f2937; font-variant-numeric: tabular-nums; }
  .legend { font-size: 12px; fill: #1f2937; }
  .rowlabel { font-size: 13px; font-weight: 650; fill: #1f2937; }
  .heat { font-size: 14px; font-weight: 750; fill: #1f2937; font-variant-numeric: tabular-nums; }
  .pointLabel { font-size: 11px; font-weight: 650; fill: #1f2937; }
  .callout { font-size: 12px; font-weight: 650; fill: #64748b; }
  .callout.strong { fill: #1f2937; }
  .matrixStatus { font-size: 12px; font-weight: 820; letter-spacing: 0; }
  .matrixValue { font-size: 22px; font-weight: 780; fill: #1f2937; font-variant-numeric: tabular-nums; }
  .note { font-size: 11px; fill: #64748b; }
</style>
<rect x="0" y="0" width="1080" height="680" fill="#ffffff"/>
<text x="36" y="42" class="title">Baseline x RMS</text>
<text x="36" y="66" class="subtitle">target error &lt;=10; bands: &lt;11.9, 11.9-23.8, &gt;=23.8</text>
<rect x="104" y="118" width="696" height="474" fill="#ffffff" stroke="#cbd5e1"/>
<path d="M 104.00 592.00 L 109.80 592.00 L 115.60 592.00 L 121.40 592.00 L 127.20 592.00 L 133.00 592.00 L 138.80 592.00 L 144.60 592.00 L 150.40 592.00 L 156.20 592.00 L 162.00 592.00 L 167.80 592.00 L 173.60 592.00 L 179.40 592.00 L 185.20 592.00 L 191.00 592.00 L 196.80 592.00 L 202.60 592.00 L 208.40 592.00 L 214.20 592.00 L 220.00 592.00 L 225.80 592.00 L 231.60 592.00 L 237.40 592.00 L 243.20 592.00 L 249.00 592.00 L 254.80 592.00 L 260.60 592.00 L 266.40 592.00 L 272.20 592.00 L 278.00 592.00 L 283.80 592.00 L 289.60 592.00 L 295.40 592.00 L 301.20 592.00 L 307.00 592.00 L 312.80 592.00 L 318.60 592.00 L 324.40 592.00 L 330.20 592.00 L 336.00 592.00 L 341.80 592.00 L 347.60 592.00 L 353.40 592.00 L 359.20 592.00 L 365.00 592.00 L 370.80 592.00 L 376.60 592.00 L 382.40 592.00 L 388.20 592.00 L 394.00 592.00 L 399.80 592.00 L 405.60 592.00 L 411.40 592.00 L 417.20 592.00 L 423.00 592.00 L 428.80 592.00 L 434.60 592.00 L 440.40 592.00 L 446.20 592.00 L 452.00 592.00 L 457.80 592.00 L 463.60 590.21 L 469.40 582.81 L 475.20 575.41 L 481.00 568.01 L 486.80 560.62 L 492.60 553.22 L 498.40 545.82 L 504.20 538.43 L 510.00 531.03 L 515.80 523.63 L 521.60 516.24 L 527.40 508.84 L 533.20 501.44 L 539.00 494.05 L 544.80 486.65 L 550.60 479.25 L 556.40 471.86 L 562.20 464.46 L 568.00 457.06 L 573.80 449.67 L 579.60 442.27 L 585.40 434.87 L 591.20 427.48 L 597.00 420.08 L 602.80 412.68 L 608.60 405.29 L 614.40 397.89 L 620.20 390.49 L 626.00 383.10 L 631.80 375.70 L 637.60 368.30 L 643.40 360.91 L 649.20 353.51 L 655.00 346.11 L 660.80 338.72 L 666.60 331.32 L 672.40 323.92 L 678.20 316.53 L 684.00 309.13 L 689.80 301.73 L 695.60 294.34 L 701.40 286.94 L 707.20 279.54 L 713.00 272.15 L 718.80 264.75 L 724.60 257.35 L 730.40 249.96 L 736.20 242.56 L 742.00 235.16 L 747.80 227.77 L 753.60 220.37 L 759.40 212.97 L 765.20 205.58 L 771.00 198.18 L 776.80 190.78 L 782.60 183.39 L 788.40 175.99 L 794.20 168.59 L 800.00 161.19 L 800 592 L 104 592 Z" fill="#ead8dd" opacity="0.72"/>
<path d="M 104.00 592.00 L 109.80 592.00 L 115.60 592.00 L 121.40 592.00 L 127.20 592.00 L 133.00 592.00 L 138.80 592.00 L 144.60 592.00 L 150.40 592.00 L 156.20 592.00 L 162.00 592.00 L 167.80 592.00 L 173.60 592.00 L 179.40 592.00 L 185.20 592.00 L 191.00 592.00 L 196.80 592.00 L 202.60 592.00 L 208.40 592.00 L 214.20 592.00 L 220.00 592.00 L 225.80 592.00 L 231.60 592.00 L 237.40 592.00 L 243.20 592.00 L 249.00 592.00 L 254.80 592.00 L 260.60 592.00 L 266.40 592.00 L 272.20 592.00 L 278.00 592.00 L 283.80 592.00 L 289.60 592.00 L 295.40 592.00 L 301.20 592.00 L 307.00 592.00 L 312.80 592.00 L 318.60 592.00 L 324.40 589.60 L 330.20 582.20 L 336.00 574.80 L 341.80 567.41 L 347.60 560.01 L 353.40 552.61 L 359.20 545.22 L 365.00 537.82 L 370.80 530.42 L 376.60 523.03 L 382.40 515.63 L 388.20 508.23 L 394.00 500.83 L 399.80 493.44 L 405.60 486.04 L 411.40 478.64 L 417.20 471.25 L 423.00 463.85 L 428.80 456.45 L 434.60 449.06 L 440.40 441.66 L 446.20 434.26 L 452.00 426.87 L 457.80 419.47 L 463.60 412.07 L 469.40 404.68 L 475.20 397.28 L 481.00 389.88 L 486.80 382.49 L 492.60 375.09 L 498.40 367.69 L 504.20 360.30 L 510.00 352.90 L 515.80 345.50 L 521.60 338.11 L 527.40 330.71 L 533.20 323.31 L 539.00 315.92 L 544.80 308.52 L 550.60 301.12 L 556.40 293.73 L 562.20 286.33 L 568.00 278.93 L 573.80 271.54 L 579.60 264.14 L 585.40 256.74 L 591.20 249.35 L 597.00 241.95 L 602.80 234.55 L 608.60 227.16 L 614.40 219.76 L 620.20 212.36 L 626.00 204.97 L 631.80 197.57 L 637.60 190.17 L 643.40 182.78 L 649.20 175.38 L 655.00 167.98 L 660.80 160.59 L 666.60 153.19 L 672.40 145.79 L 678.20 138.40 L 684.00 131.00 L 689.80 123.60 L 695.60 118.00 L 701.40 118.00 L 707.20 118.00 L 713.00 118.00 L 718.80 118.00 L 724.60 118.00 L 730.40 118.00 L 736.20 118.00 L 742.00 118.00 L 747.80 118.00 L 753.60 118.00 L 759.40 118.00 L 765.20 118.00 L 771.00 118.00 L 776.80 118.00 L 782.60 118.00 L 788.40 118.00 L 794.20 118.00 L 800.00 118.00 L 800.00 161.19 L 794.20 168.59 L 788.40 175.99 L 782.60 183.39 L 776.80 190.78 L 771.00 198.18 L 765.20 205.58 L 759.40 212.97 L 753.60 220.37 L 747.80 227.77 L 742.00 235.16 L 736.20 242.56 L 730.40 249.96 L 724.60 257.35 L 718.80 264.75 L 713.00 272.15 L 707.20 279.54 L 701.40 286.94 L 695.60 294.34 L 689.80 301.73 L 684.00 309.13 L 678.20 316.53 L 672.40 323.92 L 666.60 331.32 L 660.80 338.72 L 655.00 346.11 L 649.20 353.51 L 643.40 360.91 L 637.60 368.30 L 631.80 375.70 L 626.00 383.10 L 620.20 390.49 L 614.40 397.89 L 608.60 405.29 L 602.80 412.68 L 597.00 420.08 L 591.20 427.48 L 585.40 434.87 L 579.60 442.27 L 573.80 449.67 L 568.00 457.06 L 562.20 464.46 L 556.40 471.86 L 550.60 479.25 L 544.80 486.65 L 539.00 494.05 L 533.20 501.44 L 527.40 508.84 L 521.60 516.24 L 515.80 523.63 L 510.00 531.03 L 504.20 538.43 L 498.40 545.82 L 492.60 553.22 L 486.80 560.62 L 481.00 568.01 L 475.20 575.41 L 469.40 582.81 L 463.60 590.21 L 457.80 592.00 L 452.00 592.00 L 446.20 592.00 L 440.40 592.00 L 434.60 592.00 L 428.80 592.00 L 423.00 592.00 L 417.20 592.00 L 411.40 592.00 L 405.60 592.00 L 399.80 592.00 L 394.00 592.00 L 388.20 592.00 L 382.40 592.00 L 376.60 592.00 L 370.80 592.00 L 365.00 592.00 L 359.20 592.00 L 353.40 592.00 L 347.60 592.00 L 341.80 592.00 L 336.00 592.00 L 330.20 592.00 L 324.40 592.00 L 318.60 592.00 L 312.80 592.00 L 307.00 592.00 L 301.20 592.00 L 295.40 592.00 L 289.60 592.00 L 283.80 592.00 L 278.00 592.00 L 272.20 592.00 L 266.40 592.00 L 260.60 592.00 L 254.80 592.00 L 249.00 592.00 L 243.20 592.00 L 237.40 592.00 L 231.60 592.00 L 225.80 592.00 L 220.00 592.00 L 214.20 592.00 L 208.40 592.00 L 202.60 592.00 L 196.80 592.00 L 191.00 592.00 L 185.20 592.00 L 179.40 592.00 L 173.60 592.00 L 167.80 592.00 L 162.00 592.00 L 156.20 592.00 L 150.40 592.00 L 144.60 592.00 L 138.80 592.00 L 133.00 592.00 L 127.20 592.00 L 121.40 592.00 L 115.60 592.00 L 109.80 592.00 L 104.00 592.00 Z" fill="#eee5cc" opacity="0.8"/>
<path d="M 104 118 L 800 118 L 800.00 118.00 L 794.20 118.00 L 788.40 118.00 L 782.60 118.00 L 776.80 118.00 L 771.00 118.00 L 765.20 118.00 L 759.40 118.00 L 753.60 118.00 L 747.80 118.00 L 742.00 118.00 L 736.20 118.00 L 730.40 118.00 L 724.60 118.00 L 718.80 118.00 L 713.00 118.00 L 707.20 118.00 L 701.40 118.00 L 695.60 118.00 L 689.80 123.60 L 684.00 131.00 L 678.20 138.40 L 672.40 145.79 L 666.60 153.19 L 660.80 160.59 L 655.00 167.98 L 649.20 175.38 L 643.40 182.78 L 637.60 190.17 L 631.80 197.57 L 626.00 204.97 L 620.20 212.36 L 614.40 219.76 L 608.60 227.16 L 602.80 234.55 L 597.00 241.95 L 591.20 249.35 L 585.40 256.74 L 579.60 264.14 L 573.80 271.54 L 568.00 278.93 L 562.20 286.33 L 556.40 293.73 L 550.60 301.12 L 544.80 308.52 L 539.00 315.92 L 533.20 323.31 L 527.40 330.71 L 521.60 338.11 L 515.80 345.50 L 510.00 352.90 L 504.20 360.30 L 498.40 367.69 L 492.60 375.09 L 486.80 382.49 L 481.00 389.88 L 475.20 397.28 L 469.40 404.68 L 463.60 412.07 L 457.80 419.47 L 452.00 426.87 L 446.20 434.26 L 440.40 441.66 L 434.60 449.06 L 428.80 456.45 L 423.00 463.85 L 417.20 471.25 L 411.40 478.64 L 405.60 486.04 L 399.80 493.44 L 394.00 500.83 L 388.20 508.23 L 382.40 515.63 L 376.60 523.03 L 370.80 530.42 L 365.00 537.82 L 359.20 545.22 L 353.40 552.61 L 347.60 560.01 L 341.80 567.41 L 336.00 574.80 L 330.20 582.20 L 324.40 589.60 L 318.60 592.00 L 312.80 592.00 L 307.00 592.00 L 301.20 592.00 L 295.40 592.00 L 289.60 592.00 L 283.80 592.00 L 278.00 592.00 L 272.20 592.00 L 266.40 592.00 L 260.60 592.00 L 254.80 592.00 L 249.00 592.00 L 243.20 592.00 L 237.40 592.00 L 231.60 592.00 L 225.80 592.00 L 220.00 592.00 L 214.20 592.00 L 208.40 592.00 L 202.60 592.00 L 196.80 592.00 L 191.00 592.00 L 185.20 592.00 L 179.40 592.00 L 173.60 592.00 L 167.80 592.00 L 162.00 592.00 L 156.20 592.00 L 150.40 592.00 L 144.60 592.00 L 138.80 592.00 L 133.00 592.00 L 127.20 592.00 L 121.40 592.00 L 115.60 592.00 L 109.80 592.00 L 104.00 592.00 Z" fill="#d9e4ed" opacity="0.8"/>
<line x1="104" y1="118" x2="104" y2="592" stroke="#e5e7eb" stroke-width="1"/>
<text x="104" y="622" text-anchor="middle" class="tick">0.001</text>
<line x1="336" y1="118" x2="336" y2="592" stroke="#e5e7eb" stroke-width="1"/>
<text x="336" y="622" text-anchor="middle" class="tick">0.01</text>
<line x1="568" y1="118" x2="568" y2="592" stroke="#e5e7eb" stroke-width="1"/>
<text x="568" y="622" text-anchor="middle" class="tick">0.1</text>
<line x1="800" y1="118" x2="800" y2="592" stroke="#e5e7eb" stroke-width="1"/>
<text x="800" y="622" text-anchor="middle" class="tick">1</text>
<line x1="104" y1="548.7652339572686" x2="800" y2="548.7652339572686" stroke="#e5e7eb" stroke-width="1"/>
<text x="92" y="552.7652339572686" text-anchor="end" class="tick">2.8</text>
<line x1="104" y1="474.261859648468" x2="800" y2="474.261859648468" stroke="#e5e7eb" stroke-width="1"/>
<text x="92" y="478.261859648468" text-anchor="end" class="tick">5.0</text>
<line x1="104" y1="385.19639473635095" x2="800" y2="385.19639473635095" stroke="#e5e7eb" stroke-width="1"/>
<text x="92" y="389.19639473635095" text-anchor="end" class="tick">10</text>
<line x1="104" y1="296.13092982423393" x2="800" y2="296.13092982423393" stroke="#e5e7eb" stroke-width="1"/>
<text x="92" y="300.13092982423393" text-anchor="end" class="tick">20</text>
<line x1="104" y1="178.39278947270196" x2="800" y2="178.39278947270196" stroke="#e5e7eb" stroke-width="1"/>
<text x="92" y="182.39278947270196" text-anchor="end" class="tick">50</text>
<line x1="104" y1="118" x2="800" y2="118" stroke="#e5e7eb" stroke-width="1"/>
<text x="92" y="122" text-anchor="end" class="tick">80</text>
<path d="M 104.00 592.00 L 109.80 592.00 L 115.60 592.00 L 121.40 592.00 L 127.20 592.00 L 133.00 592.00 L 138.80 592.00 L 144.60 592.00 L 150.40 592.00 L 156.20 592.00 L 162.00 592.00 L 167.80 592.00 L 173.60 592.00 L 179.40 592.00 L 185.20 592.00 L 191.00 592.00 L 196.80 592.00 L 202.60 592.00 L 208.40 592.00 L 214.20 592.00 L 220.00 592.00 L 225.80 592.00 L 231.60 592.00 L 237.40 592.00 L 243.20 592.00 L 249.00 592.00 L 254.80 592.00 L 260.60 592.00 L 266.40 592.00 L 272.20 592.00 L 278.00 592.00 L 283.80 592.00 L 289.60 592.00 L 295.40 592.00 L 301.20 592.00 L 307.00 592.00 L 312.80 592.00 L 318.60 592.00 L 324.40 592.00 L 330.20 592.00 L 336.00 592.00 L 341.80 592.00 L 347.60 592.00 L 353.40 592.00 L 359.20 592.00 L 365.00 592.00 L 370.80 592.00 L 376.60 592.00 L 382.40 592.00 L 388.20 592.00 L 394.00 592.00 L 399.80 592.00 L 405.60 592.00 L 411.40 592.00 L 417.20 592.00 L 423.00 592.00 L 428.80 592.00 L 434.60 592.00 L 440.40 592.00 L 446.20 592.00 L 452.00 592.00 L 457.80 592.00 L 463.60 590.21 L 469.40 582.81 L 475.20 575.41 L 481.00 568.01 L 486.80 560.62 L 492.60 553.22 L 498.40 545.82 L 504.20 538.43 L 510.00 531.03 L 515.80 523.63 L 521.60 516.24 L 527.40 508.84 L 533.20 501.44 L 539.00 494.05 L 544.80 486.65 L 550.60 479.25 L 556.40 471.86 L 562.20 464.46 L 568.00 457.06 L 573.80 449.67 L 579.60 442.27 L 585.40 434.87 L 591.20 427.48 L 597.00 420.08 L 602.80 412.68 L 608.60 405.29 L 614.40 397.89 L 620.20 390.49 L 626.00 383.10 L 631.80 375.70 L 637.60 368.30 L 643.40 360.91 L 649.20 353.51 L 655.00 346.11 L 660.80 338.72 L 666.60 331.32 L 672.40 323.92 L 678.20 316.53 L 684.00 309.13 L 689.80 301.73 L 695.60 294.34 L 701.40 286.94 L 707.20 279.54 L 713.00 272.15 L 718.80 264.75 L 724.60 257.35 L 730.40 249.96 L 736.20 242.56 L 742.00 235.16 L 747.80 227.77 L 753.60 220.37 L 759.40 212.97 L 765.20 205.58 L 771.00 198.18 L 776.80 190.78 L 782.60 183.39 L 788.40 175.99 L 794.20 168.59 L 800.00 161.19" fill="none" stroke="#64748b" stroke-width="2.4" stroke-dasharray="6 5"/>
<path d="M 104.00 592.00 L 109.80 592.00 L 115.60 592.00 L 121.40 592.00 L 127.20 592.00 L 133.00 592.00 L 138.80 592.00 L 144.60 592.00 L 150.40 592.00 L 156.20 592.00 L 162.00 592.00 L 167.80 592.00 L 173.60 592.00 L 179.40 592.00 L 185.20 592.00 L 191.00 592.00 L 196.80 592.00 L 202.60 592.00 L 208.40 592.00 L 214.20 592.00 L 220.00 592.00 L 225.80 592.00 L 231.60 592.00 L 237.40 592.00 L 243.20 592.00 L 249.00 592.00 L 254.80 592.00 L 260.60 592.00 L 266.40 592.00 L 272.20 592.00 L 278.00 592.00 L 283.80 592.00 L 289.60 592.00 L 295.40 592.00 L 301.20 592.00 L 307.00 592.00 L 312.80 592.00 L 318.60 592.00 L 324.40 589.60 L 330.20 582.20 L 336.00 574.80 L 341.80 567.41 L 347.60 560.01 L 353.40 552.61 L 359.20 545.22 L 365.00 537.82 L 370.80 530.42 L 376.60 523.03 L 382.40 515.63 L 388.20 508.23 L 394.00 500.83 L 399.80 493.44 L 405.60 486.04 L 411.40 478.64 L 417.20 471.25 L 423.00 463.85 L 428.80 456.45 L 434.60 449.06 L 440.40 441.66 L 446.20 434.26 L 452.00 426.87 L 457.80 419.47 L 463.60 412.07 L 469.40 404.68 L 475.20 397.28 L 481.00 389.88 L 486.80 382.49 L 492.60 375.09 L 498.40 367.69 L 504.20 360.30 L 510.00 352.90 L 515.80 345.50 L 521.60 338.11 L 527.40 330.71 L 533.20 323.31 L 539.00 315.92 L 544.80 308.52 L 550.60 301.12 L 556.40 293.73 L 562.20 286.33 L 568.00 278.93 L 573.80 271.54 L 579.60 264.14 L 585.40 256.74 L 591.20 249.35 L 597.00 241.95 L 602.80 234.55 L 608.60 227.16 L 614.40 219.76 L 620.20 212.36 L 626.00 204.97 L 631.80 197.57 L 637.60 190.17 L 643.40 182.78 L 649.20 175.38 L 655.00 167.98 L 660.80 160.59 L 666.60 153.19 L 672.40 145.79 L 678.20 138.40 L 684.00 131.00 L 689.80 123.60 L 695.60 118.00 L 701.40 118.00 L 707.20 118.00 L 713.00 118.00 L 718.80 118.00 L 724.60 118.00 L 730.40 118.00 L 736.20 118.00 L 742.00 118.00 L 747.80 118.00 L 753.60 118.00 L 759.40 118.00 L 765.20 118.00 L 771.00 118.00 L 776.80 118.00 L 782.60 118.00 L 788.40 118.00 L 794.20 118.00 L 800.00 118.00" fill="none" stroke="#1f2937" stroke-width="3"/>
<text x="453.1947949702182" y="591.1506342781901" class="callout">11.9</text>
<text x="453.1947949702182" y="413.01970445395614" class="callout strong">23.8</text>
<circle cx="800" cy="548.7652339572686" r="6.5" fill="#ffffff" stroke="#8f5f6b" stroke-width="3"/>
<text x="688" y="538.7652339572686" class="pointLabel">2.8 / 1</text>
<circle cx="104" cy="548.7652339572686" r="6.5" fill="#ffffff" stroke="#4f6f88" stroke-width="3"/>
<text x="114" y="538.7652339572686" class="pointLabel">2.8 / 0.001</text>
<circle cx="568" cy="296.13092982423393" r="6.5" fill="#ffffff" stroke="#8a743d" stroke-width="3"/>
<text x="578" y="284.13092982423393" class="pointLabel">20 / 0.1</text>
<circle cx="568" cy="178.39278947270196" r="6.5" fill="#ffffff" stroke="#4f6f88" stroke-width="3"/>
<text x="578" y="166.39278947270196" class="pointLabel">50 / 0.1</text>
<text x="452" y="652" text-anchor="middle" class="axis">RMS</text>
<text x="30" y="355" text-anchor="middle" transform="rotate(-90 30 355)" class="axis">baseline</text>
<rect x="828" y="122" width="22" height="16" fill="#d9e4ed" stroke="#4f6f88" stroke-width="1.5"/>
<text x="860" y="134" class="legend">&gt;=23.8</text>
<rect x="828" y="154" width="22" height="16" fill="#eee5cc" stroke="#8a743d" stroke-width="1.5"/>
<text x="860" y="166" class="legend">11.9-23.8</text>
<rect x="828" y="186" width="22" height="16" fill="#ead8dd" stroke="#8f5f6b" stroke-width="1.5"/>
<text x="860" y="198" class="legend">&lt;11.9</text>
<line x1="828" y1="236" x2="856" y2="236" stroke="#1f2937" stroke-width="3"/>
<text x="866" y="241" class="legend">23.8</text>
<line x1="828" y1="267" x2="856" y2="267" stroke="#64748b" stroke-width="2.4" stroke-dasharray="6 5"/>
<text x="866" y="272" class="legend">11.9</text>
</svg>