<svg xmlns="http://www.w3.org/2000/svg" width="980" height="560" viewBox="0 0 980 560" role="img">
<style>
  text { font-family: Inter, ui-sans-serif, system-ui, -apple-system, BlinkMacSystemFont, "Segoe UI", sans-serif; fill: #1f2937; }
  .title { font-size: 24px; font-weight: 760; }
  .subtitle { font-size: 13px; fill: #64748b; }
  .axis { font-size: 13px; font-weight: 650; fill: #1f2937; }
  .tick { font-size: 11px; fill: #64748b; font-variant-numeric: tabular-nums; }
  .small { font-size: 11px; fill: #1f2937; font-variant-numeric: tabular-nums; }
  .legend { font-size: 12px; fill: #1f2937; }
  .rowlabel { font-size: 13px; font-weight: 650; fill: #1f2937; }
  .heat { font-size: 14px; font-weight: 750; fill: #1f2937; font-variant-numeric: tabular-nums; }
  .pointLabel { font-size: 11px; font-weight: 650; fill: #1f2937; }
  .callout { font-size: 12px; font-weight: 650; fill: #64748b; }
  .callout.strong { fill: #1f2937; }
  .matrixStatus { font-size: 12px; font-weight: 820; letter-spacing: 0; }
  .matrixValue { font-size: 22px; font-weight: 780; fill: #1f2937; font-variant-numeric: tabular-nums; }
  .note { font-size: 11px; fill: #64748b; }
</style>
<rect x="0" y="0" width="980" height="560" fill="#ffffff"/>
<text x="36" y="42" class="title">不同硬件场景下的最终落点误差</text>
<text x="36" y="66" class="subtitle">每组 120 次合法发球；横轴为各算法最终落点误差中位数</text>
<rect x="190" y="98" width="575" height="278" fill="#ffffff" stroke="#e5e7eb"/>
<line x1="190" y1="98" x2="190" y2="376" stroke="#e5e7eb" stroke-width="1"/>
<text x="190" y="406" text-anchor="middle" class="tick">0.03</text>
<line x1="265.16381963404854" y1="98" x2="265.16381963404854" y2="376" stroke="#e5e7eb" stroke-width="1"/>
<text x="265.16381963404854" y="406" text-anchor="middle" class="tick">0.10</text>
<line x1="333.75" y1="98" x2="333.75" y2="376" stroke="#e5e7eb" stroke-width="1"/>
<text x="333.75" y="406" text-anchor="middle" class="tick">0.30</text>
<line x1="408.91381963404854" y1="98" x2="408.91381963404854" y2="376" stroke="#e5e7eb" stroke-width="1"/>
<text x="408.91381963404854" y="406" text-anchor="middle" class="tick">1</text>
<line x1="477.5" y1="98" x2="477.5" y2="376" stroke="#e5e7eb" stroke-width="1"/>
<text x="477.5" y="406" text-anchor="middle" class="tick">3</text>
<line x1="552.6638196340484" y1="98" x2="552.6638196340484" y2="376" stroke="#e5e7eb" stroke-width="1"/>
<text x="552.6638196340484" y="406" text-anchor="middle" class="tick">10</text>
<line x1="621.25" y1="98" x2="621.25" y2="376" stroke="#e5e7eb" stroke-width="1"/>
<text x="621.25" y="406" text-anchor="middle" class="tick">30</text>
<line x1="696.4138196340484" y1="98" x2="696.4138196340484" y2="376" stroke="#e5e7eb" stroke-width="1"/>
<text x="696.4138196340484" y="406" text-anchor="middle" class="tick">100</text>
<line x1="765" y1="98" x2="765" y2="376" stroke="#e5e7eb" stroke-width="1"/>
<text x="765" y="406" text-anchor="middle" class="tick">300</text>
<line x1="190" y1="120" x2="765" y2="120" stroke="#e5e7eb" stroke-width="1" opacity="0.8"/>
<text x="172" y="125" text-anchor="end" class="rowlabel">2.8cm / 1px</text>
<circle cx="737.6630140716037" cy="104" r="5.5" fill="#64748b" stroke="#ffffff" stroke-width="1.5"/>
<text x="745.6630140716037" y="108" class="small">193.6</text>
<circle cx="642.9094605440977" cy="120" r="5.5" fill="#2463eb" stroke="#ffffff" stroke-width="1.5"/>
<text x="650.9094605440977" y="124" class="small">42.4</text>
<circle cx="651.7605097898497" cy="136" r="5.5" fill="#b7791f" stroke="#ffffff" stroke-width="1.5"/>
<text x="659.7605097898497" y="140" class="small">48.9</text>
<line x1="190" y1="198" x2="765" y2="198" stroke="#e5e7eb" stroke-width="1" opacity="0.8"/>
<text x="172" y="203" text-anchor="end" class="rowlabel">2.8cm / 0.001px</text>
<circle cx="490.3633188221684" cy="182" r="5.5" fill="#64748b" stroke="#ffffff" stroke-width="1.5"/>
<text x="498.3633188221684" y="186" class="small">3.7</text>
<circle cx="201.52266976553835" cy="198" r="5.5" fill="#2463eb" stroke="#ffffff" stroke-width="1.5"/>
<text x="209.52266976553835" y="202" class="small">0.04</text>
<circle cx="215.69411930544763" cy="214" r="5.5" fill="#b7791f" stroke="#ffffff" stroke-width="1.5"/>
<text x="223.69411930544763" y="218" class="small">0.05</text>
<line x1="190" y1="276" x2="765" y2="276" stroke="#e5e7eb" stroke-width="1" opacity="0.8"/>
<text x="172" y="281" text-anchor="end" class="rowlabel">20cm / 0.1px</text>
<circle cx="504.9903352454171" cy="260" r="5.5" fill="#64748b" stroke="#ffffff" stroke-width="1.5"/>
<text x="512.9903352454171" y="264" class="small">4.7</text>
<circle cx="374.2785886285054" cy="276" r="5.5" fill="#2463eb" stroke="#ffffff" stroke-width="1.5"/>
<text x="382.2785886285054" y="280" class="small">0.57</text>
<circle cx="383.17344696515977" cy="292" r="5.5" fill="#b7791f" stroke="#ffffff" stroke-width="1.5"/>
<text x="391.17344696515977" y="296" class="small">0.66</text>
<line x1="190" y1="354" x2="765" y2="354" stroke="#e5e7eb" stroke-width="1" opacity="0.8"/>
<text x="172" y="359" text-anchor="end" class="rowlabel">50cm / 0.1px</text>
<circle cx="491.4381298559832" cy="338" r="5.5" fill="#64748b" stroke="#ffffff" stroke-width="1.5"/>
<text x="499.4381298559832" y="342" class="small">3.8</text>
<circle cx="317.85151550230256" cy="354" r="5.5" fill="#2463eb" stroke="#ffffff" stroke-width="1.5"/>
<text x="325.85151550230256" y="358" class="small">0.23</text>
<circle cx="314.97590397184774" cy="370" r="5.5" fill="#b7791f" stroke="#ffffff" stroke-width="1.5"/>
<text x="322.97590397184774" y="374" class="small">0.22</text>
<text x="477.5" y="536" text-anchor="middle" class="axis">最终落点误差中位数 (cm)</text>
<g><line x1="789" y1="102" x2="813" y2="102" stroke="#64748b" stroke-width="3"/>
<text x="821" y="107" class="legend">Two-frame</text>
<line x1="789" y1="124" x2="813" y2="124" stroke="#2463eb" stroke-width="3"/>
<text x="821" y="129" class="legend">Weighted LS9</text>
<line x1="789" y1="146" x2="813" y2="146" stroke="#b7791f" stroke-width="3"/>
<text x="821" y="151" class="legend">RANSAC12</text></g>
</svg>